<?xml version="1.0" encoding="utf-8"?>
<!-- Generator: Adobe Illustrator 27.1.1, SVG Export Plug-In . SVG Version: 6.00 Build 0)  -->
<svg version="1.1" id="Layer_1" xmlns="http://www.w3.org/2000/svg" xmlns:xlink="http://www.w3.org/1999/xlink" x="0px" y="0px"
	 viewBox="0 0 800 800" style="enable-background:new 0 0 800 800;" xml:space="preserve">
<style type="text/css">
	.st0{fill:#E369A8;}
	.st1{fill:#6C8994;}
	.st2{fill:#FFFFFF;}
	.st3{fill:#00A651;}
	.st4{fill:#009444;}
	.st5{fill:#8DC63F;}
	.st6{fill:#ED1C24;}
</style>
<path class="st2" d="M97.11,393.68c0-101.46,0-202.92,0-304.38c216.87,0,433.75,0,650.62,0c0,216.87,0,433.75,0,650.62
	c-216.87,0-433.75,0-650.62,0c0-103.15,0-206.3,0-309.46c0.4,1.83,1.03,3.65,1.17,5.5c1.9,26.4,6.5,52.35,14.27,77.62
	c29.55,96.21,90.52,164.16,184.12,201.65c61.92,24.8,126.07,29.77,191.55,17.15c58.74-11.33,110.43-36.8,155.18-76.68
	c83.16-74.1,118.67-205.12,95.77-309.19c-35.4-160.9-190.11-272.37-353.63-253.09c-55.34,6.53-106.14,25.36-151.35,58.09
	c-71.45,51.73-115.86,120.91-132.03,207.84C100.04,370.72,98.77,382.24,97.11,393.68z"/>
<path class="st3" d="M97.11,393.68c1.66-11.44,2.93-22.96,5.04-34.32c16.17-86.94,60.59-156.11,132.03-207.84
	c45.2-32.73,96.01-51.56,151.35-58.09c163.53-19.28,318.23,92.2,353.63,253.09c22.9,104.07-12.61,235.08-95.77,309.19
	c-44.75,39.88-96.44,65.35-155.18,76.68c-65.48,12.62-129.63,7.66-191.55-17.15c-93.6-37.49-154.57-105.45-184.12-201.65
	c-7.76-25.28-12.36-51.22-14.27-77.62c-0.13-1.85-0.77-3.67-1.17-5.5C97.11,418.2,97.11,405.94,97.11,393.68z M636.9,228.15
	c-15.99,16.04-31.6,31.79-47.33,47.44c-8.85,8.8-20.98,9.18-28.74,1.12c-7.71-8.01-7.05-19.37,1.76-28.21
	c14.31-14.38,28.69-28.7,43.02-43.07c1.45-1.45,2.78-3.01,4.17-4.53C488.1,96.73,316.76,103.97,206.42,230.06
	C96.48,355.7,124.04,511.79,207,604.19c15.83-15.87,31.59-31.78,47.47-47.58c8.53-8.48,19.77-8.88,27.73-1.23
	c7.99,7.68,7.83,19.55-0.67,28.24c-10.5,10.72-21.14,21.31-31.83,31.84c-5.37,5.29-11,10.33-16.55,15.51
	c99.49,91.41,279.32,104.89,392.08-13.83C735.11,501.43,732.24,329.25,636.9,228.15z"/>
<path class="st4" d="M440.76,572.49c0,15.09,0.21,29.22-0.07,43.33c-0.21,10.51-8.46,17.89-19.13,17.8
	c-10.63-0.09-18.38-7.59-18.75-18.22c-0.12-3.59-0.03-7.19-0.03-10.78c0-10.34,0-20.68,0-31.21c-9.29-0.95-18.37-1.18-27.16-2.89
	c-38.11-7.44-63.52-30.72-79.07-65.4c-10.21-22.77-15.14-46.88-15.96-71.81c-0.39-11.83,4.54-17.33,18.86-21.64
	c-4.15-12.06-9.32-23.9-12.17-36.27c-3.3-14.31-5.13-29.04-6.51-43.69c-1.24-13.2,8.18-22.68,21.47-21.18
	c16.5,1.86,32.82,5.29,49.2,8.09c2.42,0.41,4.78,1.15,7.75,1.87c-1.26-21.9,3.25-42.08,11.98-61.37
	c8.95-19.8,20.98-37.58,35.84-53.4c8.96-9.53,20.63-9.75,29.39-0.17c23.5,25.68,41.13,54.59,46.78,89.58
	c1.3,8.05,1.25,16.32,1.87,25.09c7.29-1.77,14.67-3.99,22.22-5.28c11-1.88,22.08-3.56,33.2-4.47c14.39-1.18,23.11,7.87,22.45,22.31
	c-1.21,26.43-6.81,51.78-18.41,75.68c-0.44,0.9-0.74,1.86-1.22,3.09c3.14,0.92,6.06,1.38,8.63,2.59
	c6.87,3.23,11.24,8.79,10.97,16.42c-1.33,38.32-9.61,74.53-34.81,104.86c-20.21,24.33-46.74,35.99-78.14,37.05
	C447.22,572.57,444.49,572.49,440.76,572.49z M402.71,534.47c0.27-23.13-5.73-42.79-23.37-57.71c-11.48-9.71-24.89-15.64-39.2-19.69
	c-5.95-1.68-12.04-2.88-19.17-4.56c3.59,21.56,9.7,40.54,22.51,56.82C358.38,528.27,378.62,534.94,402.71,534.47z M422.23,248.42
	c-29.85,36.89-35.68,87.44,0.07,114.51c15.68-14.17,24.42-31.43,23.67-52.96C445.17,286.93,435.56,267.31,422.23,248.42z
	 M440.88,534.45c23.46,0.52,43.36-5.81,58.34-24.02c11.52-14,17.58-30.51,21.54-47.92c0.67-2.94,0.97-5.96,1.56-9.64
	c-17.56,2.89-33.28,7.79-47.71,16.46C450.36,483.89,440.34,505.92,440.88,534.45z M403.76,432.53c-1.51-9.47-2.05-18.36-4.43-26.72
	c-8.3-29.14-43.43-53.39-78.25-54.12c4.09,23.09,11.03,44.64,27.73,61.75C363.3,428.27,381.71,432.92,403.76,432.53z M521.91,351.5
	c-48.32,3.08-90.61,46.1-79.92,81.33c5.17-0.37,10.44-0.57,15.66-1.17c3.12-0.36,6.2-1.19,9.23-2.05
	C496.29,421.26,521.48,385.69,521.91,351.5z"/>
</svg>
