<?xml version="1.0" encoding="utf-8"?>
<!-- Generator: Adobe Illustrator 27.1.1, SVG Export Plug-In . SVG Version: 6.00 Build 0)  -->
<svg version="1.1" id="Layer_1" xmlns="http://www.w3.org/2000/svg" xmlns:xlink="http://www.w3.org/1999/xlink" x="0px" y="0px"
	 viewBox="0 0 800 800" style="enable-background:new 0 0 800 800;" xml:space="preserve">
<style type="text/css">
	.st0{fill:#E369A8;}
	.st1{fill:#6C8994;}
	.st2{fill:#FFFFFF;}
	.st3{fill:#00A651;}
	.st4{fill:#009444;}
	.st5{fill:#8DC63F;}
	.st6{fill:#ED1C24;}
</style>
<g>
	<path class="st6" d="M541.68,166.71c1.14,1.79,2.22,3.61,3.27,5.43c-2.84-5.93-5.1-10.36-6.13-12.49
		C539.13,161.84,540.07,164.17,541.68,166.71z"/>
	<path class="st6" d="M650.29,353.49c-88.9,48.86-155.86-26.75-155.86-26.75v0c-4.56,4.98-8.4,10.63-11.3,17.1
		c-6.65,14.83-11.19,30.64-16.18,46.17c-8.77,27.29-16.21,55.04-25.95,81.97c-17.67,48.83-44.52,91.62-85.1,125.36
		c-26.94,22.4-56.31,40.59-88.86,52.91c-29.37,11.12-59.76,19.56-89.61,29.46c-2.49,0.83-4.3,3.74-6.42,5.68
		c2.44,1.98,4.62,5.19,7.35,5.76c31.08,6.48,62.46,10.36,94.33,10.43c12.28-0.81,24.55-1.74,36.84-2.41
		c28.86-1.57,56.99-7.57,84.36-16.16c44.17-13.86,84.95-34.44,122.03-62.73c48.79-37.22,85.78-83.39,111.15-138.97
		c12.94-28.35,20.85-58.23,25.87-88.93C655.12,379.05,655.21,365.92,650.29,353.49z"/>
	<path class="st5" d="M650.29,353.49C650.29,353.49,650.29,353.49,650.29,353.49C650.29,353.48,650.29,353.48,650.29,353.49
		c-2.14-3.53-3.77-6.7-5.09-9.66c-5.18-11.62-5.63-20.09-13.64-34.39c-10.06-17.94-24.5-24.06-31.5-54.25
		c-7-30.19-25.64-84.88-27.7-103.26c-2.06-18.38-9.5-16.63-16.5-13.56c-7,3.06-22.41,10.12-17.04,21.28c0,0,0,0.01,0.01,0.01
		c1.02,2.13,3.29,6.55,6.13,12.49c12.1,25.26,34.66,77.84,16.6,96.61c-69.56,48.12-67.12,57.99-67.12,57.99v0
		C494.43,326.74,561.39,402.34,650.29,353.49z"/>
</g>
</svg>
