<?xml version="1.0" encoding="utf-8"?>
<!-- Generator: Adobe Illustrator 27.1.1, SVG Export Plug-In . SVG Version: 6.00 Build 0)  -->
<svg version="1.1" id="Layer_1" xmlns="http://www.w3.org/2000/svg" xmlns:xlink="http://www.w3.org/1999/xlink" x="0px" y="0px"
	 viewBox="0 0 1920 1080" style="enable-background:new 0 0 1920 1080;" xml:space="preserve">
<style type="text/css">
	.st0{fill-rule:evenodd;clip-rule:evenodd;}
	.st1{font-family:'AvenirLTStd-Heavy';}
	.st2{font-size:99.796px;}
	.st3{letter-spacing:-1;}
	.st4{fill:#5E7C88;}
	.st5{fill:#434649;}
</style>
<g>
	<g>
		<path class="st0" d="M206.09,400.07c0,96.32,0,189.42,0,283.81c-19.23,0-36.92,0.19-54.58-0.27c-2.01-0.05-5.09-3.5-5.62-5.84
			c-0.96-4.24-0.4-8.83-0.4-13.29c-0.02-147.27,0.15-294.55-0.25-441.83c-0.05-17.68-1.9-35.58-5.1-52.99
			c-4.95-26.96-16.69-35.92-44.21-37.1c-13.21-0.57-13.22-0.58-10.71-17.18c28.49,1.51,57.44,2.05,86.14,5
			c15.84,1.62,24.34,14.82,27.3,29.2c3.73,18.09,6.45,36.7,6.77,55.14c0.95,55.42,0.51,110.85,0.62,166.28c0,4.34,0,8.66,0,13
			c0.99,0.49,1.97,0.99,2.95,1.48c7.5-9.06,15.14-18.04,22.48-27.24c45.4-56.88,90.72-113.83,136.08-170.74
			c8.56-10.74,16.95-21.61,25.8-32.1c28.15-33.32,64.37-44.18,106.74-37.42c4.56,16.21,3.78,17.74-12.36,19.43
			c-26.54,2.79-47.46,16.22-64.19,35.74c-25.77,30.09-50.54,61.03-75.43,91.86c-24.63,30.51-48.67,61.51-73.49,91.85
			c-5.76,7.04-5.41,11.62-0.03,18.57c47.84,61.67,94.79,124.02,143.16,185.25c19.97,25.29,41.26,49.93,64.77,71.85
			c15.25,14.23,35.74,22.81,53.56,34.41c3.24,2.1,6.95,6.64,6.8,9.9c-0.16,3.49-3.97,8.83-7.27,9.86
			c-31.51,9.75-62.23,7.89-91.33-8.68c-37.74-21.48-65.59-53.48-91.52-87.32c-46.23-60.35-92.2-120.88-138.33-181.3
			C212.59,406.99,210.4,404.88,206.09,400.07z"/>
		<path class="st0" d="M1169.98,683.93c-16.1,0-31.02,0.46-45.84-0.42c-2.71-0.17-7.15-5.79-7.27-9.03
			c-0.74-18.18-0.33-36.41-0.43-54.61c-0.33-63.5,0.11-127.03-1.46-190.5c-0.69-27.48-8.63-53.62-30.83-72.71
			c-17.94-15.44-44.63-18.81-64.4-5.92c-12.3,8.03-22.8,19.17-32.93,30.03c-3.22,3.47-3.65,10.47-3.66,15.87
			c-0.24,90.63-0.18,181.26-0.25,271.89c-0.01,4.74-0.42,9.48-0.67,14.82c-17.9,0-34.76,0-53.88,0c0-5,0-10.03,0-15.07
			c0.01-84.96,0.32-169.93-0.24-254.9c-0.12-17.65-2.02-35.59-5.75-52.82c-4.6-21.24-15.44-28.43-37.18-29.12
			c-3.96-0.12-7.91-0.47-12.39-0.75c0-4.42,0-7.89,0-11c25.5,0,50.47-1.09,75.29,0.39c16.84,1,25.92,14.68,33.63,29.24
			c8.2-6.82,15.11-13.42,22.83-18.87c65.17-46.02,143.83-15.81,160.46,61.99c3.54,16.5,5.33,33.65,5.46,50.52
			c0.56,76.48,0.26,152.94,0.23,229.41C1170.7,675.56,1170.32,678.75,1169.98,683.93z"/>
		<path class="st0" d="M771.32,648.85c-4.29,6.11-6.5,10.7-9.95,13.97c-38.19,36.11-99.66,40.11-137.46,7.74
			c-26.53-22.72-36.49-54.5-37.71-87.88c-2.09-56.96-1.23-114.03-2.43-171.03c-0.36-17.27-2.15-34.73-5.6-51.63
			c-3.95-19.33-14.18-27.1-34.01-28.29c-9.28-0.56-11.27-4.28-7.64-14.91c22.86,1.05,46.61,1.02,70.08,3.63
			c15.92,1.76,24.48,14.55,26.71,29.34c2.98,19.9,4.82,40.12,5.12,60.24c0.7,47.73-0.01,95.48,0.28,143.21
			c0.17,26.95,3.92,53.12,18.62,76.74c18.75,30.13,56.76,38.23,85.15,16.86c9.59-7.21,18.28-16.07,25.7-25.5
			c3.49-4.45,4.11-12.01,4.13-18.17c0.24-90.22,0.37-180.44-0.08-270.65c-0.06-11.47,2.76-16.12,14.71-15.01
			c10.01,0.93,20.2,0.4,30.32,0.06c6.78-0.23,9.68,2.61,9.38,9.25c-0.12,2.82,0.09,5.67,0.09,8.48c0,110.85,0.07,221.7-0.2,332.55
			c0,5.29-3.06,15.14-4.55,15.12c-9.77-0.19-21.13,6.17-29.1-4.89C786.75,669.58,780.46,661.22,771.32,648.85z"/>
		<path class="st0" d="M1203.4,322.7c0-4.01,0-7.52,0-14.33c25.87,1.76,51.53,1.02,76.11,5.86c22.86,4.51,36.65,23.43,44.41,44.64
			c13.43,36.8,25.43,74.13,37.86,111.31c12.43,37.16,24.62,74.4,37,111.59c0.45,1.37,1.7,2.5,4.22,6.08
			c2.53-8.3,4.53-14.55,6.34-20.85c21.93-76.11,43.81-152.21,65.75-228.32c6.79-23.58,8.29-24.38,35-19.47
			c-10.74,37.31-21.38,74.54-32.19,111.71c-26.89,92.33-54.33,184.5-80.49,277.04c-7.56,26.72-16.66,52.24-32.62,75.07
			c-18.27,26.15-44.86,31.19-74.01,28.65c-2.37-0.21-5.25-6.57-5.98-10.44c-0.96-5-0.94-10.28,6.8-11.63
			c9.86-1.7,20.24-3.18,29.02-7.53c23.35-11.61,34.11-33.42,42.22-56.81c0.13-0.37,0.05-0.84,0.24-1.19
			c11.92-23.93,4.62-46.63-3.18-69.97c-30.11-90.07-59.64-180.32-89.08-270.62C1260.52,351.94,1243.97,336.32,1203.4,322.7z"/>
		<path class="st0" d="M1699.08,345.28c0-8.84,0-17.17,0-27.7c11.36,0,22.09-0.24,32.8,0.08c7.86,0.24,10.96-3.03,10.44-10.85
			c-0.46-6.85,0.59-13.83-0.29-20.6c-3.63-28.01,4.2-51.97,22.21-73.78c11.57-14.03,12.09-15.52,32.55-10.82
			c0,21.78,0,43.91,0,66.04c0,13.36,0.33,26.71-0.12,40.04c-0.25,7.48,2.77,10.03,9.92,9.95c16.99-0.2,34.02,0.79,50.95-0.22
			c12.03-0.72,16.05,3.63,14.52,15c-0.53,3.94-0.09,8.03-0.09,14.35c-15.37,0-30.13,0-44.88,0c-30.29,0-30.29,0-30.29,30.37
			c-0.01,69.58-0.15,139.15,0.1,208.71c0.04,12.07,0.57,24.36,2.8,36.19c6.67,35.42,33.29,49.69,67.02,36.52
			c7.07-2.76,13.79-6.42,21.47-10.03c1.87,4.51,3.54,8.51,5.12,12.35c-32.66,35.58-92.55,42-124.13,13.31
			c-22.29-20.26-26.47-47.68-26.71-75.49c-0.66-78.47-0.27-156.94-0.29-235.4c-0.01-16.5-0.04-16.48-16.52-16.54
			c-7.68-0.03-15.37-0.11-23.05-0.24C1701.84,346.51,1701.1,346.01,1699.08,345.28z"/>
		<path class="st0" d="M1585.64,683.94c0-7.32,0-12.53,0-17.75c-0.01-83.32,0.32-166.65-0.28-249.97
			c-0.12-18.04-2.2-36.35-5.9-54.03c-4.82-23.09-14.67-29.88-38.16-30.82c-2.01-0.09-4.52,0.65-5.96-0.28
			c-2.54-1.67-6.06-4.28-6.12-6.6c-0.06-2.18,3.74-6.45,5.86-6.46c22.63-0.12,45.35-0.6,67.88,1.11
			c16.53,1.27,27.71,12.15,30.78,28.34c3.23,16.99,5.61,34.41,5.72,51.65c0.59,90.6,0.21,181.21,0.55,271.81
			c0.04,9.71-2.23,13.9-12.76,13.21C1614.06,683.29,1600.78,683.94,1585.64,683.94z"/>
		<path class="st0" d="M1619.45,225.35c-2.6,10.63-3.86,18.6-6.56,26.08c-3.67,10.15-11.05,16.76-22.26,17.75
			c-11.56,1.02-20.61-3.72-26.18-13.77c-10.61-19.18-10.19-38.83,0.57-57.56c8.99-15.66,32.8-16.69,42.76-1.46
			C1613.67,205.41,1616.09,216.71,1619.45,225.35z"/>
	</g>
	<text transform="matrix(1 0 0 1 122.1704 925.5)" class="st1 st2 st3">BALINESE &amp; INDONESIAN SPECIALITY</text>
</g>
</svg>
