<?xml version="1.0" encoding="utf-8"?>
<!-- Generator: Adobe Illustrator 27.1.1, SVG Export Plug-In . SVG Version: 6.00 Build 0)  -->
<svg version="1.1" id="Layer_1" xmlns="http://www.w3.org/2000/svg" xmlns:xlink="http://www.w3.org/1999/xlink" x="0px" y="0px"
	 viewBox="0 0 800 800" style="enable-background:new 0 0 800 800;" xml:space="preserve">
<style type="text/css">
	.st0{fill:#E369A8;}
	.st1{fill:#6C8994;}
	.st2{fill:#FFFFFF;}
	.st3{fill:#00A651;}
	.st4{fill:#009444;}
	.st5{fill:#8DC63F;}
	.st6{fill:#ED1C24;}
</style>
<g>
	<path class="st0" d="M553.83,525.39c-15.37,3.33-29.37,7.14-43.62,9.32c-60.34,9.19-117.96,0.08-172.79-26.78
		c-7.95-3.89-12.31-2.6-17.37,4.8c-7.13,10.43-14.3,20.84-20.93,31.58c-2.04,3.31-3.41,7.72-3.26,11.56
		c0.7,17.67-0.3,34.57-10.28,50.3c-4.29,6.76-5.34,15.53-8.42,23.15c-0.82,2.04-3.67,4.49-5.71,4.59
		c-9.45,0.49-18.94,0.22-28.24,0.22c-0.39-0.64-0.88-1.15-0.78-1.34c8.62-16.46,5.25-33.35,2.06-50.31
		c-2.55-13.59-4.46-27.3-7.19-40.85c-0.77-3.8-2.71-7.9-5.35-10.7c-10.17-10.78-20.57-21.4-31.5-31.42
		c-3.51-3.22-8.68-5.35-13.43-6.37c-40.06-8.58-76.04-26.07-109.31-49.49c-1.93-1.36-3.54-4.59-3.59-6.99
		c-0.32-15.8-0.35-31.61,0.04-47.41c0.06-2.4,2.28-5.92,4.44-6.93c37.56-17.59,67.25-43.96,89.75-78.74
		c7.74-11.97,18.35-21.24,31.56-28.91c1.72,4.01,3.27,7.67,4.87,11.31c9.34,21.33,25.92,32.05,48.93,32.96
		c9.47,0.38,18.97,0.18,28.45,0.03c7.96-0.13,13.32-4.82,13.48-11.42c0.17-6.87-5.34-11.78-13.73-11.9
		c-9.72-0.14-19.45,0.07-29.18-0.07c-10.85-0.16-20.13-4.71-24.41-14.46c-11.27-25.7-21.42-51.89-32.39-78.79
		c24.37,1.61,45.34,9.22,63.11,24.11c8.67,7.26,16.27,16,23.42,24.84c5.38,6.65,11.14,9.56,19.83,9.54
		c114.53-0.24,229.06-0.24,343.6-0.01c8.87,0.02,17.7,2.5,26.6,3.28c6.95,0.61,14.12,1.29,20.95,0.29
		c12.12-1.78,20.53-13.05,19.47-24.39c-1.15-12.17-10.79-21.27-23.5-21.61c-10.93-0.29-21.88-0.03-32.83-0.09
		c-8.65-0.05-13.61-4.38-13.58-11.68c0.03-7.3,4.95-11.54,13.66-11.59c10.46-0.06,20.91-0.03,31.37-0.01
		c23.15,0.05,41.41,13.74,46.86,35.1c5.46,21.42-4.04,42.39-24.21,53.42c-1.04,0.57-2.11,1.08-2.04,1.04
		c5.52,11.75,13.52,22.69,15.78,34.71c8.33,44.33,3.8,86.69-26.27,123.11c-11.45,13.87-23.66,27.12-34.84,41.21
		c-3.18,4.01-5.37,9.89-5.54,14.99c-0.64,19.19-0.14,38.41-0.37,57.62c-0.04,3.2-0.99,6.73-2.56,9.53
		c-11.86,21.19-24.1,42.16-35.92,63.37c-2.22,3.99-4.73,5.37-9.16,5.11c-6.5-0.38-13.04-0.1-20.18-0.1c3-18.4,5.97-36.06,8.7-53.75
		c0.46-3.01,0.45-6.29-0.24-9.24c-3.3-14.16-6.66-28.33-10.59-42.33c-1.04-3.7-3.48-7.61-6.41-10.06
		c-25.46-21.33-39.32-48.19-40.23-81.58c-0.21-7.88-5.26-13.19-11.86-13.05c-6.88,0.14-11.73,5.82-11.4,14.16
		c1.16,29.28,10.49,55.6,29.04,78.48C548.58,519.17,550.61,521.54,553.83,525.39z M190.61,359.46c-0.21-9.1-8.36-17.09-17.46-17.11
		c-9.34-0.02-17.72,8.53-17.47,17.83c0.24,9.16,8.39,17.14,17.45,17.1C182.54,377.26,190.83,368.81,190.61,359.46z"/>
	<path class="st0" d="M713.21,463.1c-2.7,16.49-5.58,32.96-7.95,49.5c-0.55,3.85-0.16,8.27,1.2,11.9
		c5.71,15.2,12.19,30.11,17.82,45.34c1.16,3.13,0.91,7.68-0.52,10.72c-7.43,15.81-15.73,31.21-23.11,47.03
		c-2.48,5.31-5.51,7.24-11.1,6.61c-3.99-0.45-8.07-0.09-13.16-0.09c4.78-9.62,9.59-18.04,13.13-26.96
		c1.72-4.34,2.83-10.34,1.18-14.34c-8.59-20.89-9.34-42.52-10.37-64.72c-1.02-21.8,4.2-39.09,20.54-53.33
		c4.11-3.59,7.3-8.24,10.92-12.4C712.26,462.61,712.74,462.85,713.21,463.1z"/>
</g>
</svg>
