<?xml version="1.0" standalone="no"?>
<!DOCTYPE svg PUBLIC "-//W3C//DTD SVG 20010904//EN"
 "http://www.w3.org/TR/2001/REC-SVG-20010904/DTD/svg10.dtd">
<svg version="1.0" xmlns="http://www.w3.org/2000/svg"
 width="1920.000000pt" height="896.000000pt" viewBox="0 0 1920.000000 896.000000"
 preserveAspectRatio="xMidYMid meet">

<g transform="translate(0.000000,896.000000) scale(0.100000,-0.100000)"
fill="#000000" stroke="none">
<path d="M2095 8954 c-22 -2 -119 -11 -215 -20 -586 -52 -1017 -210 -1357
-496 -405 -342 -583 -875 -484 -1448 79 -458 287 -735 706 -943 61 -30 121
-58 135 -62 14 -4 30 -11 35 -15 11 -8 203 -71 345 -114 116 -34 267 -75 543
-145 127 -33 285 -73 350 -90 65 -18 225 -59 355 -92 130 -33 307 -78 392
-100 141 -37 189 -51 385 -109 407 -120 660 -303 799 -577 131 -259 165 -594
91 -883 -55 -216 -151 -385 -314 -554 -200 -206 -447 -332 -836 -427 -292 -71
-523 -94 -845 -86 -461 12 -906 109 -1212 263 -210 106 -400 282 -517 480 -98
167 -141 315 -170 577 -23 207 -26 212 -131 212 -63 0 -72 -3 -97 -28 -27 -26
-28 -33 -31 -139 -10 -320 92 -650 272 -882 308 -397 800 -635 1456 -705 408
-44 687 -33 1140 45 431 74 684 163 936 331 530 352 758 980 600 1653 -71 303
-239 547 -490 715 -187 124 -345 185 -836 325 -181 52 -305 84 -1045 270 -593
149 -864 227 -991 285 -30 14 -58 25 -63 25 -19 0 -263 148 -326 198 -267 213
-405 505 -405 857 0 161 43 396 100 544 131 341 404 577 829 715 596 194 1216
214 1846 60 408 -100 703 -264 887 -493 127 -158 200 -309 243 -506 19 -88 35
-230 35 -313 0 -57 3 -67 29 -93 24 -23 38 -29 73 -29 121 0 158 38 158 165 0
302 -87 603 -241 840 -61 95 -265 302 -359 366 -319 216 -715 352 -1175 405
-131 15 -510 26 -600 18z"/>
<path d="M16073 7794 c-17 -9 -40 -25 -50 -36 -17 -19 -18 -74 -21 -1209 -1
-654 -6 -1189 -11 -1189 -4 0 -28 30 -51 68 -328 510 -918 759 -1691 713 -108
-6 -243 -20 -300 -31 -515 -99 -923 -401 -1143 -845 -139 -280 -201 -570 -200
-935 0 -210 11 -313 55 -515 156 -712 626 -1142 1359 -1245 276 -39 738 -26
960 27 437 104 761 335 989 707 129 211 214 473 240 740 7 73 11 708 11 1893
0 1935 3 1819 -52 1857 -28 20 -54 20 -95 0z m-1464 -1884 c384 -30 641 -123
888 -322 88 -72 157 -147 232 -258 88 -128 147 -258 190 -420 86 -319 86 -828
0 -1150 -121 -453 -456 -796 -904 -925 -163 -47 -246 -57 -505 -62 -535 -11
-848 74 -1156 313 -291 226 -460 561 -505 999 -21 208 -2 545 41 755 116 556
501 934 1058 1040 196 37 430 47 661 30z"/>
<path d="M6699 6145 c-289 -28 -512 -97 -939 -292 -68 -31 -77 -76 -30 -142
56 -77 92 -78 231 -10 279 137 497 197 796 219 363 27 728 -41 1000 -185 369
-195 613 -556 688 -1018 10 -65 10 -80 -1 -92 -11 -11 -196 -14 -1026 -18
-1075 -5 -1181 -9 -1518 -58 -404 -59 -639 -221 -762 -526 -81 -202 -103 -501
-53 -699 68 -267 221 -446 501 -587 49 -25 114 -53 144 -62 341 -104 587 -137
1010 -138 432 0 748 30 997 94 312 81 484 165 645 317 87 83 147 166 197 274
90 194 114 411 115 1018 0 397 -2 434 -23 564 -42 254 -136 493 -268 679 -83
118 -249 279 -369 359 -225 151 -542 264 -824 293 -280 28 -310 29 -511 10z
m1746 -1761 c9 -4 20 -17 25 -30 13 -34 -7 -659 -26 -782 -52 -351 -247 -577
-592 -686 -108 -34 -337 -80 -537 -108 -138 -19 -203 -22 -475 -22 -270 0
-337 3 -470 22 -360 51 -554 100 -715 180 -124 63 -240 176 -291 287 -66 143
-86 306 -60 500 25 190 60 276 156 379 92 98 196 142 480 200 133 28 311 48
490 55 219 10 1992 13 2015 5z"/>
<path d="M17730 6149 c-298 -22 -562 -114 -765 -266 -108 -82 -182 -171 -239
-288 -53 -109 -72 -178 -85 -312 -38 -378 107 -657 424 -816 85 -42 269 -103
476 -156 309 -80 348 -91 589 -156 441 -119 564 -169 660 -265 103 -104 152
-239 152 -425 0 -118 -19 -201 -68 -300 -108 -221 -318 -329 -732 -377 -138
-16 -460 -15 -582 1 -405 55 -598 236 -695 655 -18 81 -44 128 -80 144 -39 18
-60 15 -94 -13 -43 -37 -55 -82 -48 -191 26 -438 364 -744 912 -826 117 -17
538 -17 660 0 461 65 766 270 898 602 43 110 60 202 59 335 0 224 -59 386
-194 530 -161 172 -345 250 -935 395 -552 136 -774 200 -878 253 -197 99 -304
282 -305 518 -1 316 165 537 482 643 210 70 286 81 548 81 216 -1 245 -3 355
-27 306 -68 478 -161 584 -317 63 -92 92 -172 116 -315 18 -112 48 -162 101
-172 27 -5 42 -2 62 13 66 48 78 147 41 321 -39 188 -148 364 -287 465 -235
172 -756 294 -1132 266z"/>
<path d="M10479 6140 c-318 -29 -627 -163 -840 -367 -177 -169 -317 -410 -393
-676 -100 -350 -122 -675 -113 -1722 6 -682 8 -716 48 -756 21 -21 83 -26 121
-8 59 27 55 -21 62 895 8 1117 24 1369 98 1594 119 363 384 625 753 744 178
57 264 70 485 70 162 1 223 -3 290 -17 509 -110 850 -475 959 -1027 53 -268
53 -273 60 -1270 6 -869 7 -937 24 -967 24 -45 77 -58 137 -33 57 24 55 -23
55 1074 0 1107 2 1062 -61 1325 -141 588 -542 995 -1095 1111 -175 36 -392 47
-590 30z"/>
<path d="M9630 1624 c-141 -38 -242 -125 -281 -242 -46 -139 -10 -288 103
-423 27 -33 48 -61 46 -63 -1 -1 -25 -13 -52 -27 -79 -39 -191 -151 -229 -228
-31 -63 -32 -71 -32 -186 0 -120 0 -122 38 -197 53 -109 140 -180 277 -230 70
-25 260 -36 343 -19 84 18 185 73 260 141 l65 60 77 -85 77 -85 175 0 174 0
-138 151 c-76 84 -151 167 -167 186 l-28 34 38 57 c22 31 90 130 152 219 61
89 112 164 112 167 0 3 -69 6 -154 6 l-154 0 -81 -124 c-44 -69 -84 -126 -88
-129 -8 -4 -238 241 -238 254 0 4 29 26 64 49 86 56 161 134 196 206 27 53 30
69 30 159 0 82 -4 109 -22 147 -46 99 -138 169 -268 203 -74 19 -222 18 -295
-1z m228 -239 c77 -33 111 -95 92 -167 -15 -51 -89 -130 -155 -164 l-56 -29
-50 54 c-95 102 -115 180 -64 247 51 67 152 92 233 59z m-45 -794 c70 -77 139
-154 154 -172 l27 -32 -49 -44 c-136 -119 -275 -136 -393 -46 -43 33 -82 114
-82 173 0 54 36 134 76 171 37 35 116 88 129 89 6 0 68 -63 138 -139z"/>
<path d="M15 1583 c4 -10 12 -34 17 -53 5 -19 40 -138 78 -265 37 -126 105
-356 150 -510 45 -154 103 -352 130 -440 26 -88 55 -186 64 -218 l17 -58 131
3 131 3 53 175 c29 96 89 294 133 440 44 146 99 329 123 407 24 79 45 143 48
143 3 0 55 -161 114 -357 100 -328 134 -441 186 -608 10 -33 28 -93 40 -132
l22 -73 133 0 133 0 16 48 c8 26 19 63 24 82 6 19 35 123 67 230 31 107 76
264 101 348 24 83 65 223 90 310 69 238 154 535 154 539 0 2 -64 2 -142 1
l-142 -3 -13 -45 c-6 -25 -69 -254 -139 -510 -70 -256 -131 -484 -137 -507 -6
-24 -13 -43 -17 -43 -3 0 -12 24 -20 53 -7 28 -23 84 -36 122 -12 39 -36 115
-52 170 -17 55 -72 235 -122 400 -50 165 -96 315 -101 333 l-11 32 -138 0
-139 0 -36 -117 c-20 -65 -51 -165 -69 -223 -19 -58 -40 -127 -49 -155 -8 -27
-34 -111 -57 -185 -39 -127 -117 -380 -126 -407 -10 -34 -23 3 -72 190 -28
111 -70 270 -91 352 -22 83 -58 222 -81 310 -22 88 -46 177 -51 198 l-10 37
-155 0 c-145 0 -156 -1 -149 -17z"/>
<path d="M2850 820 l0 -780 135 0 135 0 0 780 0 780 -135 0 -135 0 0 -780z"/>
<path d="M3980 820 l0 -781 138 3 137 3 2 585 c1 322 3 590 3 595 0 6 15 -14
33 -43 17 -29 190 -298 382 -597 l350 -545 178 0 177 0 0 780 0 780 -140 0
-140 0 0 -577 0 -578 -123 187 c-67 104 -185 285 -262 403 -77 118 -191 294
-254 390 l-115 175 -183 0 -183 0 0 -780z"/>
<path d="M6240 820 l0 -780 535 0 535 0 0 125 0 125 -397 2 -398 3 -3 208 -2
207 360 0 361 0 -3 123 -3 122 -358 3 -357 2 2 193 3 192 378 3 377 2 0 125 0
125 -515 0 -515 0 0 -780z"/>
<path d="M12560 819 l0 -780 368 4 c392 4 410 6 552 64 197 80 366 249 433
433 61 167 61 389 1 575 -40 120 -155 273 -261 345 -78 53 -189 99 -291 120
-90 18 -137 20 -451 20 l-351 0 0 -781z m735 506 c200 -55 320 -181 360 -377
19 -98 19 -161 -1 -251 -23 -102 -60 -173 -125 -238 -65 -67 -146 -110 -261
-140 -69 -19 -112 -22 -258 -23 l-175 -1 -3 515 c-1 283 0 521 3 529 8 20 376
9 460 -14z"/>
<path d="M14720 820 l0 -780 140 0 140 0 0 780 0 780 -140 0 -140 0 0 -780z"/>
<path d="M15855 1588 c-3 -7 -4 -357 -3 -778 l3 -765 137 -3 138 -3 2 598 3
598 63 -100 c35 -55 105 -164 155 -243 51 -78 195 -302 320 -497 l229 -355
176 2 177 3 0 775 0 775 -137 3 -138 3 0 -578 c0 -355 -4 -573 -9 -567 -9 9
-132 197 -485 739 -96 149 -194 299 -218 335 l-43 65 -183 3 c-140 2 -184 0
-187 -10z"/>
<path d="M18110 820 l0 -780 535 0 535 0 0 125 0 125 -395 0 -395 0 0 210 0
210 355 0 355 0 0 125 0 125 -355 0 -355 0 0 195 0 195 375 0 375 0 0 125 0
125 -515 0 -515 0 0 -780z"/>
</g>
</svg>
