<?xml version="1.0" encoding="utf-8"?>
<!-- Generator: Adobe Illustrator 27.1.1, SVG Export Plug-In . SVG Version: 6.00 Build 0)  -->
<svg version="1.1" id="Layer_1" xmlns="http://www.w3.org/2000/svg" xmlns:xlink="http://www.w3.org/1999/xlink" x="0px" y="0px"
	 viewBox="0 0 800 800" style="enable-background:new 0 0 800 800;" xml:space="preserve">
<style type="text/css">
	.st0{fill:#E369A8;}
	.st1{fill:#6C8994;}
	.st2{fill:#FFFFFF;}
	.st3{fill:#00A651;}
	.st4{fill:#009444;}
	.st5{fill:#8DC63F;}
	.st6{fill:#ED1C24;}
</style>
<g>
	<path class="st1" d="M283.33,692.09c-9.62-4.98-11.96-13.14-11.8-23.48c0.45-30.9,0.16-61.81,0.16-92.72c0-2.07,0-4.14,0-7.37
		c40.55,22.27,83.21,33.63,128.7,33.66c45.57,0.03,88.3-11.2,128.94-33.54c0.12,2.77,0.29,4.74,0.29,6.72
		c0.02,30.91-0.28,61.82,0.18,92.72c0.16,10.48-1.93,18.92-11.81,24.02c-3.42,0-6.83,0-10.25,0c-0.18-0.3-0.29-0.77-0.56-0.89
		c-34.47-15.5-68.93-31.01-103.47-46.34c-1.77-0.79-4.52-0.68-6.32,0.12c-35.02,15.6-69.97,31.37-104.94,47.1
		C289.41,692.09,286.37,692.09,283.33,692.09z"/>
	<path class="st1" d="M400.38,108.97c126.56-0.08,230.29,103.28,230.3,229.48c0.01,126.98-103.29,230.48-230.02,230.47
		c-126.73,0-230.03-103.51-230.02-230.48C170.65,212.49,274.21,109.05,400.38,108.97z M350.44,338.58c0.01,0,0.03,0,0.04,0
		c0,10.06-0.27,20.13,0.06,30.17c0.62,18.72,14.91,34.68,33.56,36.41c11.06,1.03,22.37,0.98,33.44-0.02
		c17.96-1.63,32.67-17.46,33.15-35.56c0.54-20.48,0.48-41,0.01-61.48c-0.37-15.74-11.65-30.74-27.15-34.05
		c-11.31-2.42-23.32-2.28-35-2.14c-21.16,0.25-37.56,17.02-38.07,38.2C350.25,319.59,350.44,329.09,350.44,338.58z M495.9,355.51
		c4.06,0,7.26,0.1,10.45-0.02c8.88-0.32,18.03,0.51,26.59-1.35c18.13-3.96,28.12-17.09,30.22-37.13c2.61-25-15.25-45.05-40.36-45.26
		c-5.88-0.05-11.76-0.02-17.64-0.01c-26.48,0.03-42.77,16.34-42.82,42.97c-0.05,23.52-0.04,47.04,0.03,70.56
		c0.01,2.82,0.22,5.72,0.88,8.45c2.08,8.65,11.12,13.9,19.75,11.72c8.25-2.08,12.69-7.97,12.87-17.74
		C496.05,377.28,495.9,366.88,495.9,355.51z M305.12,304.98c6.16,0,11.28,0.07,16.39-0.02c10.03-0.17,17.32-7.13,17.39-16.52
		c0.07-9.32-7.32-16.64-17.23-16.68c-22.01-0.1-44.02-0.09-66.04-0.01c-10.02,0.03-17.34,7.03-17.49,16.41
		c-0.15,9.54,7.29,16.66,17.66,16.81c5.23,0.07,10.46,0.01,16.05,0.01c0,2.96,0,5.02,0,7.09c0,24.86-0.01,49.71,0.02,74.57
		c0,2.26-0.04,4.61,0.51,6.77c2.02,7.89,9.8,13.41,17.4,12.59c8.95-0.96,15.24-7.64,15.28-16.82c0.12-25.8,0.05-51.61,0.06-77.41
		C305.12,309.73,305.12,307.7,305.12,304.98z"/>
	<path class="st1" d="M417.65,338.43c0,8.72,0.06,17.43-0.02,26.15c-0.05,5.98-1.82,7.86-7.78,8.01
		c-6.25,0.16-12.51,0.07-18.76,0.02c-5.13-0.04-7.49-2.61-7.47-7.82c0.1-17.24-0.01-34.49,0.06-51.73c0.02-6.03,2.1-7.97,8.34-8.05
		c5.68-0.07,11.37-0.06,17.06,0c6.56,0.07,8.51,1.96,8.55,8.42C417.7,321.76,417.65,330.09,417.65,338.43z"/>
	<path class="st1" d="M496.59,321.96c-0.32-0.93-0.42-1.1-0.43-1.28c-1.31-14.61-0.34-15.7,14.06-15.69c4.17,0,8.34-0.14,12.5,0.05
		c5.39,0.24,6.87,2.35,6.93,8.78c0.05,4.76-1.04,8.24-6.82,8.17C514.15,321.88,505.47,321.96,496.59,321.96z"/>
</g>
</svg>
