<?xml version="1.0" encoding="utf-8"?>
<!-- Generator: Adobe Illustrator 27.1.1, SVG Export Plug-In . SVG Version: 6.00 Build 0)  -->
<svg version="1.1" id="Layer_1" xmlns="http://www.w3.org/2000/svg" xmlns:xlink="http://www.w3.org/1999/xlink" x="0px" y="0px"
	 viewBox="0 0 800 800" style="enable-background:new 0 0 800 800;" xml:space="preserve">
<style type="text/css">
	.st0{fill:#E369A8;}
	.st1{fill:#6C8994;}
	.st2{fill:#FFFFFF;}
	.st3{fill:#00A651;}
	.st4{fill:#009444;}
	.st5{fill:#8DC63F;}
	.st6{fill:#ED1C24;}
</style>
<path class="st5" d="M360.86,449.51c-2.86-11.84-6.07-23.3-8.34-34.94c-5.26-27.04-7.48-54.24-6-81.91
	c4.53-84.8,60.44-157.6,141.39-182.71c40.88-12.68,82.83-15.06,125.28-12.71c30.98,1.72,61.58,6.07,91.89,12.58
	c1.44,0.31,2.88,0.62,4.29,1.03c4.42,1.29,5.06,3.15,1.8,6.49c-25.33,26-40.74,57.62-51.3,91.75
	c-10.39,33.56-19.6,67.48-29.83,101.09c-7.1,23.33-16.16,45.82-31.43,65.34c-20.98,26.8-49.13,42.32-81.03,51.96
	c-30.01,9.07-60.76,13.38-92.1,13.31c-4.76-0.01-8.59,1.2-11.53,5.15c-27.23,36.6-52.95,74.17-71.14,116.22
	c-6.47,14.96-11.13,30.75-15.99,46.36c-3.14,10.08-8.97,16.39-17.8,17.13c-9.31,0.78-16.72-4.09-20.73-14.13
	c-22.46-56.29-55.41-105.54-98.65-147.97c-8.56-8.4-7.8-17.61,1.76-24.86c5.44-4.12,10.92-8.19,16.4-12.25
	c8.42-6.25,15.34-6.45,22.73,1.08c8.24,8.39,16.07,17.33,23.03,26.79c17.87,24.28,32.38,50.55,43.92,78.41
	c2.04,4.93,5.13,8.75,10.62,7.51c2.89-0.65,6.63-3.54,7.5-6.22c17.54-54.34,50.53-99.7,84.29-144.45
	c55.84-74.03,122.95-136.24,200.24-187.47c1.69-1.12,3.43-2.18,5.01-3.44c4.56-3.63,5.46-8.86,2.38-13.15
	c-2.94-4.09-8.07-5.14-12.78-2.19c-5.93,3.72-11.71,7.7-17.47,11.68c-82.79,57.22-153.34,126.82-211.5,208.96
	c-1.06,1.5-2.14,3-3.25,4.47C362.31,448.68,361.92,448.81,360.86,449.51z"/>
</svg>
